<svg width="389" height="31" viewBox="0 0 389 31" fill="none" xmlns="http://www.w3.org/2000/svg">
<path d="M10.0834 3H14.4334V24H10.0834V3ZM20.0134 13.5C20.0134 12.48 19.7634 11.66 19.2634 11.04C18.7634 10.4 18.0634 9.94 17.1634 9.66C16.2634 9.38 15.2034 9.24 13.9834 9.24H10.5634C9.3434 9.24 8.2834 9.38 7.3834 9.66C6.4834 9.94 5.7834 10.4 5.2834 11.04C4.7834 11.66 4.5334 12.48 4.5334 13.5C4.5334 14.5 4.7834 15.32 5.2834 15.96C5.7834 16.6 6.4834 17.06 7.3834 17.34C8.2834 17.62 9.3434 17.76 10.5634 17.76H13.9834C15.2034 17.76 16.2634 17.62 17.1634 17.34C18.0634 17.06 18.7634 16.6 19.2634 15.96C19.7634 15.32 20.0134 14.5 20.0134 13.5ZM24.3634 13.5C24.3634 15.18 23.9334 16.63 23.0734 17.85C22.2334 19.05 21.0734 19.98 19.5934 20.64C18.1334 21.28 16.4834 21.6 14.6434 21.6H9.9034C8.0634 21.6 6.4034 21.28 4.9234 20.64C3.4634 19.98 2.3034 19.05 1.4434 17.85C0.603399 16.63 0.183399 15.18 0.183399 13.5C0.183399 11.8 0.603399 10.35 1.4434 9.15C2.3034 7.95 3.4634 7.03 4.9234 6.39C6.4034 5.73 8.0634 5.4 9.9034 5.4H14.6434C16.4834 5.4 18.1334 5.73 19.5934 6.39C21.0734 7.03 22.2334 7.95 23.0734 9.15C23.9334 10.35 24.3634 11.8 24.3634 13.5ZM27.5657 10.2H35.9357V13.47H31.3757V24H27.5657V10.2ZM44.9846 13.17L45.2246 9.9C46.6846 9.9 47.9646 10.21 49.0646 10.83C50.1646 11.45 51.0346 12.3 51.6746 13.38C52.3146 14.46 52.6346 15.7 52.6346 17.1C52.6346 18.48 52.3146 19.72 51.6746 20.82C51.0346 21.9 50.1346 22.75 48.9746 23.37C47.8346 23.99 46.5046 24.3 44.9846 24.3C43.4646 24.3 42.1046 23.97 40.9046 23.31C39.7246 22.63 38.7846 21.62 38.0846 20.28C37.4046 18.94 37.0646 17.28 37.0646 15.3L41.2646 17.1C41.2646 17.88 41.4246 18.57 41.7446 19.17C42.0846 19.75 42.5346 20.21 43.0946 20.55C43.6546 20.87 44.2846 21.03 44.9846 21.03C45.6646 21.03 46.2846 20.87 46.8446 20.55C47.4046 20.21 47.8446 19.75 48.1646 19.17C48.4846 18.57 48.6446 17.88 48.6446 17.1C48.6446 16.32 48.4846 15.63 48.1646 15.03C47.8446 14.43 47.4046 13.97 46.8446 13.65C46.2846 13.33 45.6646 13.17 44.9846 13.17ZM39.5546 17.1C39.5546 15.98 39.6846 14.98 39.9446 14.1C40.2046 13.2 40.5846 12.44 41.0846 11.82C41.6046 11.2 42.2046 10.73 42.8846 10.41C43.5846 10.07 44.3646 9.9 45.2246 9.9L44.9846 13.17C44.5446 13.17 44.1046 13.26 43.6646 13.44C43.2246 13.6 42.8246 13.85 42.4646 14.19C42.1046 14.53 41.8146 14.94 41.5946 15.42C41.3746 15.9 41.2646 16.46 41.2646 17.1H39.5546ZM37.0646 15.3C37.0646 13.42 37.2346 11.76 37.5746 10.32C37.9146 8.88 38.5146 7.65 39.3746 6.63C40.2546 5.61 41.4846 4.8 43.0646 4.2C44.4246 3.66 45.4546 3.11 46.1546 2.55C46.8746 1.97 47.3046 1.32 47.4446 0.599999H51.1946C51.0946 1.48 50.7746 2.31 50.2346 3.09C49.6946 3.87 48.9846 4.56 48.1046 5.16C47.2446 5.76 46.2646 6.26 45.1646 6.66C43.9446 7.1 42.9846 7.69 42.2846 8.43C41.6046 9.17 41.1246 10 40.8446 10.92C40.5846 11.84 40.4546 12.8 40.4546 13.8L40.9646 17.01L37.0646 15.3ZM54.6707 17.1C54.6707 15.66 55.0007 14.4 55.6607 13.32C56.3407 12.24 57.2507 11.4 58.3907 10.8C59.5507 10.2 60.8607 9.9 62.3207 9.9C63.7807 9.9 65.0807 10.2 66.2207 10.8C67.3807 11.4 68.2907 12.24 68.9507 13.32C69.6307 14.4 69.9707 15.66 69.9707 17.1C69.9707 18.52 69.6307 19.78 68.9507 20.88C68.2907 21.96 67.3807 22.8 66.2207 23.4C65.0807 24 63.7807 24.3 62.3207 24.3C60.8607 24.3 59.5507 24 58.3907 23.4C57.2507 22.8 56.3407 21.96 55.6607 20.88C55.0007 19.78 54.6707 18.52 54.6707 17.1ZM58.6307 17.1C58.6307 17.88 58.7907 18.57 59.1107 19.17C59.4507 19.75 59.9007 20.21 60.4607 20.55C61.0207 20.87 61.6407 21.03 62.3207 21.03C63.0007 21.03 63.6207 20.87 64.1807 20.55C64.7407 20.21 65.1807 19.75 65.5007 19.17C65.8407 18.57 66.0107 17.88 66.0107 17.1C66.0107 16.32 65.8407 15.63 65.5007 15.03C65.1807 14.43 64.7407 13.97 64.1807 13.65C63.6207 13.33 63.0007 13.17 62.3207 13.17C61.6407 13.17 61.0207 13.33 60.4607 13.65C59.9007 13.97 59.4507 14.43 59.1107 15.03C58.7907 15.63 58.6307 16.32 58.6307 17.1ZM85.5864 10.2L76.5864 30.6H72.5964L76.0764 22.62L70.3464 10.2H74.6664L79.1064 21.18L77.1864 21.12L81.5364 10.2H85.5864ZM99.8933 13.35V11.4H103.283C103.903 11.4 104.443 11.3 104.903 11.1C105.363 10.9 105.713 10.61 105.953 10.23C106.213 9.85 106.343 9.4 106.343 8.88C106.343 8.08 106.063 7.47 105.503 7.05C104.963 6.63 104.223 6.42 103.283 6.42H100.973V20.58H103.733C104.453 20.58 105.103 20.48 105.683 20.28C106.263 20.06 106.713 19.72 107.033 19.26C107.373 18.8 107.543 18.21 107.543 17.49C107.543 16.97 107.443 16.53 107.243 16.17C107.063 15.79 106.793 15.48 106.433 15.24C106.093 14.98 105.693 14.8 105.233 14.7C104.773 14.58 104.273 14.52 103.733 14.52H99.8933V12.18H104.123C105.143 12.18 106.113 12.29 107.033 12.51C107.973 12.73 108.813 13.08 109.553 13.56C110.293 14.02 110.873 14.62 111.293 15.36C111.733 16.1 111.953 16.99 111.953 18.03C111.953 19.41 111.623 20.54 110.963 21.42C110.323 22.3 109.413 22.95 108.233 23.37C107.053 23.79 105.683 24 104.123 24H96.6833V3H103.673C105.073 3 106.303 3.2 107.363 3.6C108.423 3.98 109.253 4.56 109.853 5.34C110.453 6.12 110.753 7.11 110.753 8.31C110.753 9.37 110.453 10.28 109.853 11.04C109.253 11.8 108.423 12.38 107.363 12.78C106.303 13.16 105.073 13.35 103.673 13.35H99.8933ZM114.319 17.1C114.319 15.66 114.649 14.4 115.309 13.32C115.989 12.24 116.899 11.4 118.039 10.8C119.199 10.2 120.509 9.9 121.969 9.9C123.429 9.9 124.729 10.2 125.869 10.8C127.029 11.4 127.939 12.24 128.599 13.32C129.279 14.4 129.619 15.66 129.619 17.1C129.619 18.52 129.279 19.78 128.599 20.88C127.939 21.96 127.029 22.8 125.869 23.4C124.729 24 123.429 24.3 121.969 24.3C120.509 24.3 119.199 24 118.039 23.4C116.899 22.8 115.989 21.96 115.309 20.88C114.649 19.78 114.319 18.52 114.319 17.1ZM118.279 17.1C118.279 17.88 118.439 18.57 118.759 19.17C119.099 19.75 119.549 20.21 120.109 20.55C120.669 20.87 121.289 21.03 121.969 21.03C122.649 21.03 123.269 20.87 123.829 20.55C124.389 20.21 124.829 19.75 125.149 19.17C125.489 18.57 125.659 17.88 125.659 17.1C125.659 16.32 125.489 15.63 125.149 15.03C124.829 14.43 124.389 13.97 123.829 13.65C123.269 13.33 122.649 13.17 121.969 13.17C121.289 13.17 120.669 13.33 120.109 13.65C119.549 13.97 119.099 14.43 118.759 15.03C118.439 15.63 118.279 16.32 118.279 17.1ZM144.798 19.23L145.308 15.84H155.388L155.898 19.23H144.798ZM150.288 9.81L147.138 17.04L147.228 18L144.468 24H139.638L150.288 1.77L160.938 24H156.078L153.378 18.18L153.438 17.1L150.288 9.81ZM165.797 17.1C165.797 17.9 165.977 18.6 166.337 19.2C166.697 19.8 167.177 20.27 167.777 20.61C168.397 20.95 169.077 21.12 169.817 21.12C170.417 21.12 170.997 21.03 171.557 20.85C172.117 20.65 172.617 20.39 173.057 20.07C173.517 19.73 173.867 19.34 174.107 18.9V22.89C173.627 23.33 172.997 23.68 172.217 23.94C171.457 24.18 170.567 24.3 169.547 24.3C168.087 24.3 166.767 24 165.587 23.4C164.427 22.8 163.507 21.96 162.827 20.88C162.167 19.78 161.837 18.52 161.837 17.1C161.837 15.66 162.167 14.4 162.827 13.32C163.507 12.24 164.427 11.4 165.587 10.8C166.767 10.2 168.087 9.9 169.547 9.9C170.567 9.9 171.457 10.03 172.217 10.29C172.997 10.53 173.627 10.86 174.107 11.28V15.27C173.867 14.83 173.507 14.45 173.027 14.13C172.567 13.79 172.057 13.53 171.497 13.35C170.937 13.17 170.377 13.08 169.817 13.08C169.077 13.08 168.397 13.26 167.777 13.62C167.177 13.96 166.697 14.43 166.337 15.03C165.977 15.63 165.797 16.32 165.797 17.1ZM175.764 10.2H184.944V13.47H175.764V10.2ZM178.494 10.8H182.244V24H178.494V10.8ZM190.836 30.6H186.936V10.2H190.836V30.6ZM202.176 17.1C202.176 18.66 201.866 19.99 201.246 21.09C200.626 22.19 199.806 23.02 198.786 23.58C197.786 24.14 196.706 24.42 195.546 24.42C194.366 24.42 193.336 24.12 192.456 23.52C191.596 22.92 190.926 22.07 190.446 20.97C189.986 19.87 189.756 18.58 189.756 17.1C189.756 15.6 189.986 14.31 190.446 13.23C190.926 12.13 191.596 11.28 192.456 10.68C193.336 10.08 194.366 9.78 195.546 9.78C196.706 9.78 197.786 10.06 198.786 10.62C199.806 11.18 200.626 12.01 201.246 13.11C201.866 14.19 202.176 15.52 202.176 17.1ZM198.156 17.1C198.156 16.28 197.986 15.58 197.646 15C197.306 14.42 196.846 13.98 196.266 13.68C195.706 13.38 195.086 13.23 194.406 13.23C193.826 13.23 193.256 13.38 192.696 13.68C192.156 13.96 191.706 14.39 191.346 14.97C191.006 15.55 190.836 16.26 190.836 17.1C190.836 17.94 191.006 18.65 191.346 19.23C191.706 19.81 192.156 20.25 192.696 20.55C193.256 20.83 193.826 20.97 194.406 20.97C195.086 20.97 195.706 20.82 196.266 20.52C196.846 20.22 197.306 19.78 197.646 19.2C197.986 18.62 198.156 17.92 198.156 17.1ZM207.833 19.89C207.833 20.27 207.933 20.59 208.133 20.85C208.333 21.09 208.603 21.28 208.943 21.42C209.303 21.54 209.693 21.6 210.113 21.6C210.733 21.6 211.303 21.5 211.823 21.3C212.343 21.1 212.753 20.77 213.053 20.31C213.353 19.85 213.503 19.24 213.503 18.48L213.983 20.1C213.983 20.98 213.753 21.74 213.293 22.38C212.833 23 212.213 23.48 211.433 23.82C210.673 24.14 209.813 24.3 208.853 24.3C207.913 24.3 207.073 24.14 206.333 23.82C205.593 23.5 205.003 23.03 204.563 22.41C204.143 21.77 203.933 20.99 203.933 20.07C203.933 19.13 204.173 18.33 204.653 17.67C205.153 16.99 205.843 16.47 206.723 16.11C207.623 15.75 208.673 15.57 209.873 15.57C210.613 15.57 211.303 15.66 211.943 15.84C212.583 16.02 213.123 16.23 213.563 16.47C214.003 16.71 214.313 16.94 214.493 17.16V19.05C213.933 18.63 213.353 18.32 212.753 18.12C212.153 17.92 211.443 17.82 210.623 17.82C210.023 17.82 209.513 17.91 209.093 18.09C208.673 18.27 208.353 18.51 208.133 18.81C207.933 19.11 207.833 19.47 207.833 19.89ZM206.603 14.13L205.193 11.46C205.893 11.08 206.753 10.72 207.773 10.38C208.793 10.02 209.923 9.84 211.163 9.84C212.363 9.84 213.413 10.01 214.313 10.35C215.233 10.69 215.953 11.19 216.473 11.85C216.993 12.49 217.253 13.28 217.253 14.22V24H213.503V14.85C213.503 14.23 213.263 13.75 212.783 13.41C212.303 13.05 211.683 12.87 210.923 12.87C210.263 12.87 209.643 12.95 209.063 13.11C208.503 13.25 208.003 13.42 207.563 13.62C207.143 13.82 206.823 13.99 206.603 14.13ZM229.264 10.2H233.554L228.454 16.89L233.854 24H229.564L226.444 19.62L223.384 24H218.944L224.404 16.89L219.244 10.2H223.684L226.444 14.19L229.264 10.2ZM238.536 19.89C238.536 20.27 238.636 20.59 238.836 20.85C239.036 21.09 239.306 21.28 239.646 21.42C240.006 21.54 240.396 21.6 240.816 21.6C241.436 21.6 242.006 21.5 242.526 21.3C243.046 21.1 243.456 20.77 243.756 20.31C244.056 19.85 244.206 19.24 244.206 18.48L244.686 20.1C244.686 20.98 244.456 21.74 243.996 22.38C243.536 23 242.916 23.48 242.136 23.82C241.376 24.14 240.516 24.3 239.556 24.3C238.616 24.3 237.776 24.14 237.036 23.82C236.296 23.5 235.706 23.03 235.266 22.41C234.846 21.77 234.636 20.99 234.636 20.07C234.636 19.13 234.876 18.33 235.356 17.67C235.856 16.99 236.546 16.47 237.426 16.11C238.326 15.75 239.376 15.57 240.576 15.57C241.316 15.57 242.006 15.66 242.646 15.84C243.286 16.02 243.826 16.23 244.266 16.47C244.706 16.71 245.016 16.94 245.196 17.16V19.05C244.636 18.63 244.056 18.32 243.456 18.12C242.856 17.92 242.146 17.82 241.326 17.82C240.726 17.82 240.216 17.91 239.796 18.09C239.376 18.27 239.056 18.51 238.836 18.81C238.636 19.11 238.536 19.47 238.536 19.89ZM237.306 14.13L235.896 11.46C236.596 11.08 237.456 10.72 238.476 10.38C239.496 10.02 240.626 9.84 241.866 9.84C243.066 9.84 244.116 10.01 245.016 10.35C245.936 10.69 246.656 11.19 247.176 11.85C247.696 12.49 247.956 13.28 247.956 14.22V24H244.206V14.85C244.206 14.23 243.966 13.75 243.486 13.41C243.006 13.05 242.386 12.87 241.626 12.87C240.966 12.87 240.346 12.95 239.766 13.11C239.206 13.25 238.706 13.42 238.266 13.62C237.846 13.82 237.526 13.99 237.306 14.13ZM252.977 18.24V15.21H263.837V18.24H252.977ZM261.947 10.2H265.697V24H261.947V10.2ZM251.567 10.2H255.317V24H251.567V10.2ZM272.466 17.1C272.466 17.9 272.646 18.6 273.006 19.2C273.366 19.8 273.846 20.27 274.446 20.61C275.066 20.95 275.746 21.12 276.486 21.12C277.086 21.12 277.666 21.03 278.226 20.85C278.786 20.65 279.286 20.39 279.726 20.07C280.186 19.73 280.536 19.34 280.776 18.9V22.89C280.296 23.33 279.666 23.68 278.886 23.94C278.126 24.18 277.236 24.3 276.216 24.3C274.756 24.3 273.436 24 272.256 23.4C271.096 22.8 270.176 21.96 269.496 20.88C268.836 19.78 268.506 18.52 268.506 17.1C268.506 15.66 268.836 14.4 269.496 13.32C270.176 12.24 271.096 11.4 272.256 10.8C273.436 10.2 274.756 9.9 276.216 9.9C277.236 9.9 278.126 10.03 278.886 10.29C279.666 10.53 280.296 10.86 280.776 11.28V15.27C280.536 14.83 280.176 14.45 279.696 14.13C279.236 13.79 278.726 13.53 278.166 13.35C277.606 13.17 277.046 13.08 276.486 13.08C275.746 13.08 275.066 13.26 274.446 13.62C273.846 13.96 273.366 14.43 273.006 15.03C272.646 15.63 272.466 16.32 272.466 17.1ZM284.114 10.2H287.864V24H284.114V10.2ZM292.934 10.2H297.584L291.644 15.9L298.184 24H293.564L286.994 15.9L292.934 10.2ZM313.46 13.62L300.32 25.05L300.47 20.58L313.61 9.15L313.46 13.62ZM304.07 10.2V21.12L300.32 25.05V10.2H304.07ZM313.61 9.15V24H309.86V13.08L313.61 9.15ZM330.774 13.62L317.634 25.05L317.784 20.58L330.924 9.15L330.774 13.62ZM321.384 10.2V21.12L317.634 25.05V10.2H321.384ZM330.924 9.15V24H327.174V13.08L330.924 9.15ZM319.584 3.15H322.284C322.284 3.47 322.364 3.78 322.524 4.08C322.684 4.36 322.924 4.6 323.244 4.8C323.564 4.98 323.964 5.07 324.444 5.07C324.944 5.07 325.354 4.98 325.674 4.8C325.994 4.6 326.224 4.36 326.364 4.08C326.524 3.78 326.604 3.47 326.604 3.15H329.334C329.334 3.91 329.144 4.63 328.764 5.31C328.384 5.97 327.834 6.5 327.114 6.9C326.394 7.28 325.504 7.47 324.444 7.47C323.404 7.47 322.514 7.28 321.774 6.9C321.054 6.5 320.504 5.97 320.124 5.31C319.764 4.63 319.584 3.91 319.584 3.15ZM344.333 3H356.153V6.87H348.623V24H344.333V3ZM369.152 24L367.172 14.07L369.152 9.15L373.142 24H369.152ZM362.732 20.64L369.152 9.15L369.452 14.85L363.632 24.93L362.732 20.64ZM363.632 24.93L357.902 14.85L358.202 9.15L364.532 20.64L363.632 24.93ZM354.212 24L358.202 9.15L360.182 14.07L358.202 24H354.212ZM388.194 10.2L379.194 30.6H375.204L378.684 22.62L372.954 10.2H377.274L381.714 21.18L379.794 21.12L384.144 10.2H388.194Z" fill="white"/>
</svg>
